<?xml version="1.0" encoding="UTF-8" standalone="no"?>
<svg
   xmlns:dc="http://purl.org/dc/elements/1.1/"
   xmlns:cc="http://creativecommons.org/ns#"
   xmlns:rdf="http://www.w3.org/1999/02/22-rdf-syntax-ns#"
   xmlns:svg="http://www.w3.org/2000/svg"
   xmlns="http://www.w3.org/2000/svg"
   xmlns:sodipodi="http://sodipodi.sourceforge.net/DTD/sodipodi-0.dtd"
   xmlns:inkscape="http://www.inkscape.org/namespaces/inkscape"
   inkscape:version="1.0 (4035a4fb49, 2020-05-01)"
   sodipodi:docname="engine-gear.svg"
   id="svg58"
   preserveAspectRatio="xMidYMid meet"
   viewBox="0 0 1230.000000 1280.000000"
   height="1280.000000pt"
   width="1230.000000pt"
   version="1.0">
  <defs
     id="defs62" />
  <sodipodi:namedview
     inkscape:current-layer="svg58"
     inkscape:window-maximized="1"
     inkscape:window-y="-8"
     inkscape:window-x="-8"
     inkscape:cy="774.321"
     inkscape:cx="820"
     inkscape:zoom="0.50625"
     showgrid="false"
     id="namedview60"
     inkscape:window-height="1012"
     inkscape:window-width="1920"
     inkscape:pageshadow="2"
     inkscape:pageopacity="0"
     guidetolerance="10"
     gridtolerance="10"
     objecttolerance="10"
     borderopacity="1"
     bordercolor="#666666"
     pagecolor="#ffffff" />
  <metadata
     id="metadata2">
Created by potrace 1.15, written by Peter Selinger 2001-2017
<rdf:RDF>
  <cc:Work
     rdf:about="">
    <dc:format>image/svg+xml</dc:format>
    <dc:type
       rdf:resource="http://purl.org/dc/dcmitype/StillImage" />
  </cc:Work>
</rdf:RDF>
</metadata>
  <path
     d="M 690.398,87.7 C 690.098,89.8 688.998,94.4 687.898,98 684.498,109.8 673.198,130.8 670.898,129.5 670.398,129.2 670.298,129.5 670.498,130.2 670.798,131 669.798,132.7 668.298,134 L 665.498,136.5 667.498,134 C 668.598,132.6 667.198,133.6 664.498,136.1 655.298,144.7 644.598,152.1 634.498,157 623.298,162.4 616.698,164.4 603.698,166 576.698,169.3 547.398,158.6 523.398,136.6 519.498,133 515.998,130.3 515.698,130.7 514.898,131.5 506.298,118 502.898,110.5 501.298,107 499.298,101.3 498.298,97.8 497.398,94.3 496.598,91.4 496.498,91.2 496.198,90.8 467.698,97.9 455.798,101.4 441.698,105.5 418.898,113.5 405.998,118.8 395.198,123.2 395.598,122.2 399.098,135 401.098,142.2 401.398,145.9 401.398,159 401.498,172.1 401.098,175.8 399.198,183 388.098,223.9 356.498,251.7 314.998,257 288.398,260.4 257.698,251 238.098,233.4 L 232.898,228.7 225.198,236.2 C 207.198,253.8 191.298,271 178.798,286.6 L 173.098,293.6 182.298,303.2 C 201.298,322.9 210.298,345.3 210.298,373 210.298,384.4 209.798,388 207.598,396.4 197.898,432.6 171.598,458.5 134.698,468.3 123.398,471.3 99.0984,471.3 88.1984,468.3 L 80.9984,466.3 78.3984,474.4 C 68.9984,504 56.2984,565.6 59.3984,566.5 59.9984,566.7 62.7984,567.1 65.4984,567.5 68.2984,567.9 74.5984,569.5 79.4984,571.1 110.498,581.4 133.898,605.7 143.698,637.7 146.098,645.7 146.398,648 146.398,664 146.498,683 145.898,686.5 139.898,702.2 129.498,729 103.698,752 74.9984,759.9 70.9984,761 67.4984,762.1 67.2984,762.4 66.8984,762.8 74.1984,791.9 77.2984,802 78.7984,807.2 78.2984,807.1 93.8984,805.1 125.498,801.2 160.498,815.8 180.798,841.3 210.198,878.2 209.998,928.8 180.498,965.7 176.898,970.2 172.598,974.9 170.998,976 169.298,977.2 167.998,978.5 167.998,979 167.998,980 183.198,998.9 193.298,1010.5 200.598,1018.9 210.698,1029.4 225.798,1044.3 L 234.698,1053.1 240.598,1047.3 C 248.298,1039.6 256.298,1033.8 265.798,1028.9 274.398,1024.5 289.098,1019.6 291.798,1020.3 293.298,1020.7 293.298,1020.8 291.598,1020.9 289.198,1021 275.698,1025 276.198,1025.5 276.298,1025.7 279.898,1025.2 283.998,1024.4 288.098,1023.6 293.098,1022.7 294.998,1022.4 296.898,1022.1 301.198,1021.5 304.498,1020.9 307.798,1020.4 313.198,1019.9 316.498,1019.8 320.498,1019.7 318.598,1019.4 310.998,1018.9 299.598,1018.3 299.598,1018.3 313.998,1018.5 330.798,1018.8 339.498,1020.7 352.698,1027 380.598,1040.2 399.798,1063.6 407.198,1093.6 408.898,1100.5 409.398,1105.6 409.398,1116 409.498,1130.7 407.798,1140.4 403.298,1151.8 401.898,1155.3 401.198,1158.6 401.598,1159 403.698,1161.1 438.798,1173.7 456.998,1179 470.598,1182.9 496.198,1189.2 496.498,1188.8 496.598,1188.6 497.398,1185.7 498.298,1182.2 499.298,1178.7 501.298,1173 502.898,1169.5 506.398,1161.9 514.598,1148.9 515.798,1149.2 516.198,1149.4 519.698,1146.7 523.598,1143.2 552.798,1117.1 584.798,1108.1 618.498,1116.6 631.998,1120 650.798,1131.2 664.498,1143.9 667.198,1146.4 668.598,1147.4 667.498,1146 L 665.498,1143.5 668.298,1146 C 669.798,1147.3 670.798,1149 670.498,1149.8 670.298,1150.5 670.398,1150.8 670.898,1150.5 673.198,1149.2 684.498,1170.2 687.898,1182 688.998,1185.6 690.098,1190.2 690.398,1192.2 691.198,1196.8 690.498,1196.7 709.398,1193.5 732.798,1189.6 775.698,1179.3 778.198,1177.1 778.498,1176.8 777.898,1173.1 776.798,1169 775.098,1163 774.698,1158.5 774.698,1146 774.698,1132.4 774.998,1129.3 777.298,1120.7 781.898,1103.6 790.698,1088.3 802.998,1076 821.198,1057.7 843.198,1048.3 868.998,1047.6 879.798,1047.3 880.198,1047.4 872.498,1047.9 867.598,1048.3 864.598,1048.7 865.998,1048.9 867.398,1049 870.798,1049.3 873.498,1049.6 880.998,1050.3 914.398,1057.9 916.998,1059.5 917.598,1059.8 917.998,1059.9 917.998,1059.6 917.998,1059.3 916.298,1058.2 914.298,1057.1 912.198,1056 910.998,1055.1 911.498,1055.1 913.298,1055 927.098,1063 932.998,1067.5 936.198,1069.9 942.098,1075.5 946.198,1079.9 L 953.598,1087.9 965.498,1078.3 C 983.898,1063.6 998.998,1049.8 1016.3,1032.1 L 1032.1,1015.9 1026.5,1009.9 C 994.598,975.4 990.498,925 1016.4,886.2 1021.4,878.7 1032.9,866.9 1040.5,861.4 1048,855.9 1064.4,848.5 1074.5,845.8 1082.2,843.8 1085.8,843.5 1099.5,843.6 1113.7,843.7 1116.4,844 1124,846.3 1128.7,847.7 1133.2,849.1 1134.1,849.5 1135.4,850 1136.5,848.1 1139.5,840.3 1150.3,812.3 1164.5,762.9 1162.3,761 1161.9,760.6 1159,759.5 1156,758.5 1132.5,751 1110.4,731.6 1099,708.5 1091.1,692.5 1089.5,684.9 1089.6,664 1089.6,647.9 1089.8,645.8 1092.3,637.7 1097.5,621 1105.8,607.1 1117.9,594.9 1130.7,582.2 1145.6,573.6 1163.1,569 L 1171.7,566.8 1169.8,554.6 C 1163.9,515.3 1153.1,474.8 1138.8,438.3 L 1132.9,423.1 1128.3,425.1 C 1114.3,431.1 1090.7,433.7 1074.2,431 1030.1,423.9 995.698,386.9 992.098,342.7 990.598,324.1 993.998,305.9 1002.1,289.7 1007.2,279.6 1011.5,273.5 1019.9,264.7 L 1026.4,257.9 1013.4,244.9 C 999.098,230.4 982.898,215.8 966.798,202.6 L 956.098,193.9 952.498,197.9 C 944.698,206.5 922.798,220.9 919.398,219.6 918.598,219.3 918.098,219.4 918.498,219.9 919.098,221.1 905.098,225.8 898.998,226.5 894.798,226.9 894.798,226.9 899.998,225.7 906.498,224.1 916.298,220.9 915.798,220.5 915.598,220.3 911.698,221 906.998,222 902.298,223 895.798,224.2 892.498,224.6 889.198,225 886.198,225.5 885.798,225.6 885.298,225.7 881.298,225.9 876.798,226.1 868.798,226.4 868.998,226.4 880.998,227 L 893.498,227.7 877.998,227.5 C 861.198,227.3 856.598,226.4 842.498,220.8 827.498,214.8 810.198,201.1 800.398,187.5 785.998,167.4 779.298,139.4 782.998,115 783.598,111.4 784.098,107.6 784.298,106.6 784.498,105.1 783.098,104.3 776.998,102.4 757.698,96.3 725.398,88.9 703.798,85.5 690.698,83.5 691.198,83.4 690.398,87.7 Z M 534.998,149.4 538.498,152.1 534.998,149.9 C 530.798,147.1 518.198,135.2 516.798,132.7 516.298,131.6 519.398,134.4 523.698,138.7 527.998,143.1 533.098,147.9 534.998,149.4 Z M 660.998,142.2 C 648.698,153.3 633.898,161.5 617.398,166.1 610.598,168.1 607.298,168.4 592.998,168.3 580.698,168.3 575.198,167.8 571.498,166.6 568.798,165.7 567.898,165.2 569.498,165.5 584.598,167.9 588.798,168.2 598.598,167.7 621.998,166.5 645.498,156.3 660.398,141.1 663.198,138.3 665.598,136.3 665.898,136.6 666.198,137 663.998,139.5 660.998,142.2 Z M 560.798,162.5 C 563.698,163.5 565.898,164.4 565.698,164.7 564.498,165.8 545.198,157.3 540.498,153.6 539.398,152.7 542.298,154 546.998,156.4 551.698,158.9 557.898,161.6 560.798,162.5 Z M 630.298,457.1 C 675.198,461 716.198,480.5 746.998,512.6 759.998,526.2 772.898,543.8 771.398,546.1 770.998,546.9 771.098,547.1 771.798,546.6 773.198,545.8 776.398,551.6 775.398,553.2 774.998,553.8 775.098,554 775.698,553.7 776.998,552.9 778.298,555.7 777.298,557.2 776.998,557.9 777.198,558 777.898,557.6 779.298,556.7 782.398,563.5 781.398,565.2 780.998,565.8 781.098,566 781.798,565.6 783.098,564.8 786.498,573.4 785.498,575.1 784.998,575.8 785.098,576.1 785.798,575.6 786.898,574.9 790.898,586 793.598,597.5 799.598,623.7 799.598,656.4 793.598,682.5 790.298,696.7 783.398,715.4 781.798,714.4 781.098,714 780.998,714.2 781.398,714.9 782.498,716.6 777.298,727.3 775.898,726.4 775.098,726 774.998,726.1 775.398,726.8 776.398,728.4 773.198,734.2 771.798,733.4 771.098,732.9 770.998,733.1 771.398,733.9 772.898,736.2 759.998,753.8 746.998,767.4 721.398,794.1 687.598,812.7 651.498,819.9 589.798,832.3 526.398,812.5 482.998,767.4 469.998,753.8 457.098,736.2 458.598,733.9 458.998,733.1 458.898,732.9 458.198,733.4 456.798,734.2 451.598,724.4 452.598,722.8 452.998,722.1 452.898,722 452.098,722.4 450.698,723.3 447.598,716.5 448.598,714.8 448.998,714.2 448.898,714 448.198,714.4 446.898,715.2 443.498,706.6 444.498,704.9 444.998,704.2 444.898,703.9 444.198,704.4 442.198,705.6 436.298,684.8 433.498,666.5 431.698,654.8 431.398,626.9 432.998,616 435.898,595.8 445.498,563.9 448.098,565.6 448.598,565.9 448.698,565.5 448.398,564.7 447.598,562.6 452.798,552.8 454.198,553.6 454.898,554 454.998,553.9 454.598,553.2 453.698,551.7 456.798,545.7 457.998,546.5 458.598,546.8 458.698,546.5 458.498,545.8 457.298,542.6 474.798,520.2 488.998,506.7 522.398,475 565.598,457.3 612.798,456.1 615.798,456.1 623.598,456.5 630.298,457.1 Z M 297.298,1019.7 C 296.598,1019.9 295.398,1019.9 294.798,1019.7 294.098,1019.4 294.598,1019.2 295.998,1019.2 297.398,1019.2 297.898,1019.4 297.298,1019.7 Z M 888.798,1048.7 C 887.798,1048.9 885.998,1048.9 884.798,1048.7 883.498,1048.5 884.298,1048.3 886.498,1048.3 888.698,1048.2 889.698,1048.4 888.798,1048.7 Z M 893.698,1049.6 C 893.398,1049.9 892.498,1050 891.798,1049.7 890.998,1049.4 891.298,1049.1 892.398,1049.1 893.498,1049 894.098,1049.3 893.698,1049.6 Z M 901.998,1051.5 C 906.698,1053.3 904.698,1053.3 898.998,1051.6 896.498,1050.8 895.398,1050.1 896.498,1050.1 897.598,1050.1 900.098,1050.8 901.998,1051.5 Z M 908.998,1054 C 909.798,1054.5 910.098,1055 909.498,1055 908.998,1055 907.798,1054.5 906.998,1054 906.198,1053.5 905.998,1053 906.498,1053 907.098,1053 908.198,1053.5 908.998,1054 Z M 617.398,1113.9 C 628.798,1117 638.198,1121.3 647.398,1127.5 656.498,1133.6 665.998,1141.6 665.998,1143.2 665.998,1143.8 663.198,1141.6 659.698,1138.3 643.398,1122.6 621.698,1113.4 598.498,1112.3 588.898,1111.8 584.198,1112.2 569.498,1114.5 L 566.498,1115 569.498,1114 C 579.898,1110.4 604.498,1110.4 617.398,1113.9 Z M 565.998,1115.4 C 565.998,1115.6 563.598,1116.5 560.798,1117.5 557.898,1118.4 551.698,1121.1 546.998,1123.6 542.298,1126 539.398,1127.3 540.498,1126.4 545.698,1122.3 565.998,1113.5 565.998,1115.4 Z M 534.998,1130.7 C 533.098,1132.2 527.998,1136.9 523.698,1141.3 519.398,1145.6 516.298,1148.4 516.798,1147.3 518.798,1143.9 536.198,1127.9 537.998,1128.1 538.298,1128.1 536.898,1129.3 534.998,1130.7 Z"
     id="path4"
     style="fill:none;stroke:#000000;stroke-width:0.75" />
  <path
     d="M 438.098,594.6 C 438.098,595.7 438.398,596 438.698,595.2 438.998,594.5 438.898,593.6 438.598,593.3 438.298,592.9 437.998,593.5 438.098,594.6 Z"
     id="path6"
     style="fill:none;stroke:#000000;stroke-width:0.75" />
  <path
     d="M 437.098,599.6 C 437.098,600.7 437.398,601 437.698,600.2 437.998,599.5 437.898,598.6 437.598,598.3 437.298,597.9 436.998,598.5 437.098,599.6 Z"
     id="path8"
     style="fill:none;stroke:#000000;stroke-width:0.75" />
  <path
     d="M 792.098,599.6 C 792.098,600.7 792.398,601 792.698,600.2 792.998,599.5 792.898,598.6 792.598,598.3 792.298,597.9 791.998,598.5 792.098,599.6 Z"
     id="path10"
     style="fill:none;stroke:#000000;stroke-width:0.75" />
  <path
     d="M 436.098,603.6 C 436.098,604.7 436.398,605 436.698,604.2 436.998,603.5 436.898,602.6 436.598,602.3 436.298,601.9 435.998,602.5 436.098,603.6 Z"
     id="path12"
     style="fill:none;stroke:#000000;stroke-width:0.75" />
  <path
     d="M 793.098,603.6 C 793.098,604.7 793.398,605 793.698,604.2 793.998,603.5 793.898,602.6 793.598,602.3 793.298,601.9 792.998,602.5 793.098,603.6 Z"
     id="path14"
     style="fill:none;stroke:#000000;stroke-width:0.75" />
  <path
     d="M 435.198,609 C 435.198,610.4 435.398,610.9 435.698,610.2 435.898,609.6 435.898,608.4 435.698,607.7 435.398,607.1 435.198,607.6 435.198,609 Z"
     id="path16"
     style="fill:none;stroke:#000000;stroke-width:0.75" />
  <path
     d="M 794.198,609.5 C 794.198,611.1 794.398,611.7 794.698,610.7 794.898,609.8 794.898,608.4 794.698,607.7 794.398,607.1 794.198,607.8 794.198,609.5 Z"
     id="path18"
     style="fill:none;stroke:#000000;stroke-width:0.75" />
  <path
     d="M 434.198,615.5 C 434.198,617.1 434.398,617.7 434.698,616.7 434.898,615.8 434.898,614.4 434.698,613.7 434.398,613.1 434.198,613.8 434.198,615.5 Z"
     id="path20"
     style="fill:none;stroke:#000000;stroke-width:0.75" />
  <path
     d="M 795.198,615.5 C 795.198,617.1 795.398,617.7 795.698,616.7 795.898,615.8 795.898,614.4 795.698,613.7 795.398,613.1 795.198,613.8 795.198,615.5 Z"
     id="path22"
     style="fill:none;stroke:#000000;stroke-width:0.75" />
  <path
     d="M 796.298,626 C 796.298,629.6 796.498,631 796.698,629.2 796.898,627.5 796.898,624.5 796.698,622.7 796.498,621 796.298,622.4 796.298,626 Z"
     id="path24"
     style="fill:none;stroke:#000000;stroke-width:0.75" />
  <path
     d="M 433.298,626 C 433.298,629 433.498,630.3 433.698,628.7 433.898,627.2 433.898,624.8 433.698,623.2 433.498,621.7 433.298,623 433.298,626 Z"
     id="path26"
     style="fill:none;stroke:#000000;stroke-width:0.75" />
  <path
     d="M 433.298,654.5 C 433.298,657.8 433.498,659 433.698,657.2 433.898,655.4 433.898,652.7 433.698,651.2 433.498,649.7 433.298,651.2 433.298,654.5 Z"
     id="path28"
     style="fill:none;stroke:#000000;stroke-width:0.75" />
  <path
     d="M 796.298,654 C 796.298,657 796.498,658.3 796.698,656.7 796.898,655.2 796.898,652.8 796.698,651.2 796.498,649.7 796.298,651 796.298,654 Z"
     id="path30"
     style="fill:none;stroke:#000000;stroke-width:0.75" />
  <path
     d="M 434.198,664.5 C 434.198,666.1 434.398,666.7 434.698,665.7 434.898,664.8 434.898,663.4 434.698,662.7 434.398,662.1 434.198,662.8 434.198,664.5 Z"
     id="path32"
     style="fill:none;stroke:#000000;stroke-width:0.75" />
  <path
     d="M 795.198,664.5 C 795.198,666.1 795.398,666.7 795.698,665.7 795.898,664.8 795.898,663.4 795.698,662.7 795.398,662.1 795.198,662.8 795.198,664.5 Z"
     id="path34"
     style="fill:none;stroke:#000000;stroke-width:0.75" />
  <path
     d="M 435.198,670.5 C 435.198,672.1 435.398,672.7 435.698,671.7 435.898,670.8 435.898,669.4 435.698,668.7 435.398,668.1 435.198,668.8 435.198,670.5 Z"
     id="path36"
     style="fill:none;stroke:#000000;stroke-width:0.75" />
  <path
     d="M 794.198,670.5 C 794.198,672.1 794.398,672.7 794.698,671.7 794.898,670.8 794.898,669.4 794.698,668.7 794.398,668.1 794.198,668.8 794.198,670.5 Z"
     id="path38"
     style="fill:none;stroke:#000000;stroke-width:0.75" />
  <path
     d="M 436.098,676.6 C 436.098,677.7 436.398,678 436.698,677.2 436.998,676.5 436.898,675.6 436.598,675.3 436.298,674.9 435.998,675.5 436.098,676.6 Z"
     id="path40"
     style="fill:none;stroke:#000000;stroke-width:0.75" />
  <path
     d="M 793.098,676.6 C 793.098,677.7 793.398,678 793.698,677.2 793.998,676.5 793.898,675.6 793.598,675.3 793.298,674.9 792.998,675.5 793.098,676.6 Z"
     id="path42"
     style="fill:none;stroke:#000000;stroke-width:0.75" />
  <path
     d="M 437.098,680.6 C 437.098,681.7 437.398,682 437.698,681.2 437.998,680.5 437.898,679.6 437.598,679.3 437.298,678.9 436.998,679.5 437.098,680.6 Z"
     id="path44"
     style="fill:none;stroke:#000000;stroke-width:0.75" />
  <path
     d="M 792.098,680.6 C 792.098,681.7 792.398,682 792.698,681.2 792.998,680.5 792.898,679.6 792.598,679.3 792.298,678.9 791.998,679.5 792.098,680.6 Z"
     id="path46"
     style="fill:none;stroke:#000000;stroke-width:0.75" />
  <path
     d="M 285.998,255 C 287.898,255.5 293.798,256.1 298.998,256.4 305.498,256.8 307.098,256.7 303.998,256.1 297.398,254.9 281.698,254 285.998,255 Z"
     id="path48"
     style="fill:none;stroke:#000000;stroke-width:0.75" />
  <path
     d="M 314.298,255.7 C 315.198,255.9 316.598,255.9 317.298,255.7 317.898,255.4 317.198,255.2 315.498,255.2 313.898,255.2 313.298,255.4 314.298,255.7 Z"
     id="path50"
     style="fill:none;stroke:#000000;stroke-width:0.75" />
  <path
     d="M 326.798,1020.7 C 327.498,1021 328.398,1020.9 328.698,1020.6 329.098,1020.3 328.498,1020 327.398,1020.1 326.298,1020.1 325.998,1020.4 326.798,1020.7 Z"
     id="path52"
     style="fill:none;stroke:#000000;stroke-width:0.75" />
  <path
     d="M 858.798,1049.7 C 859.398,1049.9 860.598,1049.9 861.298,1049.7 861.898,1049.4 861.398,1049.2 859.998,1049.2 858.598,1049.2 858.098,1049.4 858.798,1049.7 Z"
     id="path54"
     style="fill:none;stroke:#000000;stroke-width:0.75" />
</svg>
