<?xml version="1.0" encoding="UTF-8" standalone="no"?>
<svg
   xmlns:dc="http://purl.org/dc/elements/1.1/"
   xmlns:cc="http://creativecommons.org/ns#"
   xmlns:rdf="http://www.w3.org/1999/02/22-rdf-syntax-ns#"
   xmlns:svg="http://www.w3.org/2000/svg"
   xmlns="http://www.w3.org/2000/svg"
   xmlns:sodipodi="http://sodipodi.sourceforge.net/DTD/sodipodi-0.dtd"
   xmlns:inkscape="http://www.inkscape.org/namespaces/inkscape"
   sodipodi:docname="text.svg"
   inkscape:version="1.0 (4035a4fb49, 2020-05-01)"
   id="svg8"
   version="1.1"
   viewBox="0 0 210 297"
   height="297mm"
   width="210mm">
  <defs
     id="defs2" />
  <sodipodi:namedview
     inkscape:window-maximized="1"
     inkscape:window-y="-8"
     inkscape:window-x="-8"
     inkscape:window-height="1012"
     inkscape:window-width="1920"
     showgrid="false"
     inkscape:document-rotation="0"
     inkscape:current-layer="layer1"
     inkscape:document-units="mm"
     inkscape:cy="56.703385"
     inkscape:cx="60.505393"
     inkscape:zoom="5.6"
     inkscape:pageshadow="2"
     inkscape:pageopacity="0.0"
     borderopacity="1.0"
     bordercolor="#666666"
     pagecolor="#ffffff"
     id="base" />
  <metadata
     id="metadata5">
    <rdf:RDF>
      <cc:Work
         rdf:about="">
        <dc:format>image/svg+xml</dc:format>
        <dc:type
           rdf:resource="http://purl.org/dc/dcmitype/StillImage" />
        <dc:title></dc:title>
      </cc:Work>
    </rdf:RDF>
  </metadata>
  <g
     id="layer1"
     inkscape:groupmode="layer"
     inkscape:label="Layer 1">
    <g
       style="font-style:normal;font-weight:normal;font-size:11.9098px;line-height:1.25;font-family:sans-serif;letter-spacing:0px;word-spacing:0px;fill:#000000;fill-opacity:1;stroke:none;stroke-width:0.297746"
       id="text839"
       transform="scale(0.99571075,1.0043077)"
       aria-label="HACG">
      <path
         id="path841"
         style="stroke-width:0.297746"
         d="M 9.0998618,10.924166 H 7.9484261 V 6.6847888 H 3.6276346 V 10.924166 H 2.4761989 V 2.2651366 H 3.6276346 V 5.6612904 H 7.9484261 V 2.2651366 h 1.1514357 z" />
      <path
         id="path843"
         style="stroke-width:0.297746"
         d="M 18.25901,10.924166 H 17.031975 L 16.182936,8.510803 h -3.745073 l -0.849039,2.413363 h -1.168882 l 3.15191,-8.6590294 H 15.1071 Z M 15.828201,7.5221966 14.310399,3.271189 12.786782,7.5221966 Z" />
      <path
         id="path845"
         style="stroke-width:0.297746"
         d="m 26.260907,10.29611 q -0.319843,0.139568 -0.581533,0.26169 -0.255875,0.122122 -0.674579,0.255874 -0.354735,0.110492 -0.773439,0.186091 -0.412888,0.08141 -0.913007,0.08141 -0.942084,0 -1.715523,-0.26169 Q 20.835202,10.551984 20.2653,9.9878973 19.707028,9.4354408 19.393,8.5864023 19.078972,7.7315486 19.078972,6.6033742 q 0,-1.0700211 0.302397,-1.9132442 0.302398,-0.8432231 0.8723,-1.4247563 0.552457,-0.5640872 1.331711,-0.8606691 0.78507,-0.2965819 1.738784,-0.2965819 0.69784,0 1.389865,0.1686446 0.697839,0.1686446 1.546878,0.5931638 v 1.366603 h -0.08723 Q 25.458391,3.637555 24.754736,3.3642344 24.051081,3.0909138 23.248565,3.0909138 q -0.657132,0 -1.186328,0.2151672 -0.52338,0.209352 -0.936268,0.6571325 -0.401258,0.4361499 -0.628056,1.1049131 -0.220983,0.6629478 -0.220983,1.5352476 0,0.9130071 0.244244,1.5701396 0.25006,0.6571325 0.639687,1.070021 0.407073,0.4303346 0.947899,0.6396865 0.546641,0.2035367 1.151436,0.2035367 0.831592,0 1.558509,-0.2849513 0.726916,-0.2849513 1.360787,-0.8548538 h 0.08141 z" />
      <path
         id="path847"
         style="stroke-width:0.297746"
         d="m 35.12347,10.284479 q -0.70947,0.325659 -1.552693,0.569903 -0.837408,0.238428 -1.622478,0.238428 -1.011868,0 -1.855091,-0.279136 Q 29.249985,10.534538 28.656821,9.9762666 28.057842,9.4121795 27.732183,8.5689563 27.406525,7.7199179 27.406525,6.5859282 q 0,-2.0760735 1.209589,-3.2740318 1.215404,-1.2037737 3.332185,-1.2037737 0.738547,0 1.506171,0.1802753 0.773439,0.1744599 1.663185,0.5989791 v 1.366603 H 35.012979 Q 34.832704,4.1144122 34.489599,3.8876142 34.146494,3.6608163 33.815021,3.5096176 33.413763,3.3293424 32.902013,3.2130357 32.39608,3.0909138 31.750578,3.0909138 q -1.453833,0 -2.302872,0.9362684 -0.843223,0.9304531 -0.843223,2.523854 0,1.6806309 0.883931,2.6168993 0.88393,0.9304535 2.407547,0.9304535 0.558272,0 1.110728,-0.1104917 Q 33.564961,9.877406 33.983665,9.702946 V 7.5803499 H 31.663348 V 6.5684822 h 3.460122 z" />
    </g>
  </g>
</svg>
