<?xml version="1.0" encoding="UTF-8" standalone="no"?>
<svg
   xmlns:dc="http://purl.org/dc/elements/1.1/"
   xmlns:cc="http://creativecommons.org/ns#"
   xmlns:rdf="http://www.w3.org/1999/02/22-rdf-syntax-ns#"
   xmlns:svg="http://www.w3.org/2000/svg"
   xmlns="http://www.w3.org/2000/svg"
   xmlns:sodipodi="http://sodipodi.sourceforge.net/DTD/sodipodi-0.dtd"
   xmlns:inkscape="http://www.inkscape.org/namespaces/inkscape"
   version="1.0"
   width="393.34723mm"
   height="451.55554mm"
   viewBox="0 0 1115 1280"
   preserveAspectRatio="xMidYMid meet"
   id="svg10"
   sodipodi:docname="wolf.svg"
   inkscape:version="1.0 (4035a4fb49, 2020-05-01)">
  <defs
     id="defs14" />
  <sodipodi:namedview
     inkscape:document-units="mm"
     units="mm"
     inkscape:document-rotation="0"
     pagecolor="#ffffff"
     bordercolor="#666666"
     borderopacity="1"
     objecttolerance="10"
     gridtolerance="10"
     guidetolerance="10"
     inkscape:pageopacity="0"
     inkscape:pageshadow="2"
     inkscape:window-width="1920"
     inkscape:window-height="1012"
     id="namedview12"
     showgrid="false"
     inkscape:zoom="1.6291"
     inkscape:cx="263.243"
     inkscape:cy="286.768"
     inkscape:window-x="-8"
     inkscape:window-y="-8"
     inkscape:window-maximized="1"
     inkscape:current-layer="svg10" />
  <metadata
     id="metadata2">
Created by potrace 1.15, written by Peter Selinger 2001-2017
<rdf:RDF>
  <cc:Work
     rdf:about="">
    <dc:format>image/svg+xml</dc:format>
    <dc:type
       rdf:resource="http://purl.org/dc/dcmitype/StillImage" />
    <dc:title></dc:title>
  </cc:Work>
</rdf:RDF>
</metadata>
  <path
     d="M 58.7135,27.4983 V 27.498 C 58.1415,27.489 57.5655,27.504 56.9995,27.5913 56.4455,27.6547 55.8975,27.8302 55.4725,28.1794 54.4915,29.0054 53.8235,30.0948 53.2245,31.1809 52.0105,33.4398 51.1365,35.85 50.5075,38.3057 50.3425,38.9554 50.1835,39.6388 50.0655,40.2768 49.9315,41.0007 49.8295,41.7399 49.7355,42.4904 49.7045,43.048 49.4825,43.5847 49.1225,44.0286 48.3285,44.9764 47.4165,45.8305 46.5545,46.7235 45.7005,47.5949 44.8695,48.5207 44.1955,49.5401 43.1095,51.186 42.5595,53.0992 42.2025,54.9701 42.1365,55.3262 42.0765,55.7256 42.0325,56.0822 41.9625,56.6602 41.9175,57.2075 41.8945,57.7874 41.8545,58.7859 41.8705,59.8569 41.9345,60.8438 41.9545,61.2079 41.9915,61.6082 42.0195,61.9486 42.1865,63.6809 42.4795,65.4192 42.8525,67.1082 43.1565,68.4758 43.5095,69.8519 43.8585,71.198 45.2495,76.4768 46.9345,81.685 48.7945,86.8348 49.8025,89.6588 50.9105,92.4592 52.0155,95.2533 52.8335,97.3548 53.6835,99.4513 54.2985,101.615 54.7835,103.241 54.9475,104.932 54.9985,106.614 55.0235,107.976 55.0745,109.377 54.6125,110.687 54.4255,111.121 54.2135,111.611 53.7425,111.839 53.3235,111.922 52.9205,111.702 52.5955,111.473 51.4675,110.671 50.5325,109.664 49.5675,108.701 46.5725,105.577 43.3975,102.63 40.0215,99.8676 37.9735,98.1635 35.7815,96.6211 33.6035,95.0664 32.8955,95.7999 32.1895,96.5349 31.4785,97.2668 29.7755,99.0412 28.1475,100.933 26.9565,103.065 25.9375,104.869 25.2585,106.852 24.8095,108.824 24.6265,109.624 24.4905,110.412 24.3555,111.211 24.0365,113.183 23.8315,115.158 23.8185,117.139 23.8055,118.65 23.8795,120.129 24.0445,121.629 24.2105,123.129 24.4645,124.613 24.8105,126.076 25.3825,128.541 26.2515,130.938 27.2685,133.271 27.6835,134.207 28.1175,135.093 28.5995,135.989 30.4185,139.296 32.6325,142.402 34.8535,145.474 40.1825,152.788 45.7665,159.936 51.1885,167.188 54.0515,171.041 56.9215,174.898 59.4715,178.942 61.3675,181.915 62.9685,185.043 64.3925,188.235 66.6755,193.327 68.7045,198.526 70.2655,203.854 72.0135,209.766 73.1945,215.819 73.8945,221.916 74.2345,224.95 74.5125,227.993 74.6165,231.042 74.7925,236.559 74.5685,242.078 74.3045,247.589 74.2725,248.484 74.1865,249.382 74.2425,250.278 74.2795,250.415 74.2225,250.62 74.3685,250.704 74.6445,250.493 74.7045,250.132 74.8205,249.833 75.2635,248.359 75.4655,246.819 75.6805,245.314 75.9545,243.252 76.1555,241.162 76.3115,239.102 76.4625,237.021 76.5845,234.92 76.6525,232.834 76.7915,228.7 76.6885,224.565 76.3695,220.452 76.0915,216.769 75.6605,213.111 75.2695,209.438 75.0025,206.867 74.7135,204.295 74.6335,201.712 74.6075,200.411 74.6355,199.062 75.1995,197.849 75.2825,197.663 75.4025,197.443 75.4945,197.296 75.9095,196.513 76.5815,195.832 77.4385,195.466 78.8065,194.867 80.4365,195.041 81.7705,195.637 82.5845,196.045 83.2755,196.633 83.9615,197.204 85.9545,198.907 87.8215,200.739 89.5375,202.687 90.7625,204.1 91.8795,205.593 92.9405,207.117 95.4915,210.807 97.6135,214.817 98.6655,219.121 98.9495,220.237 99.1045,221.375 99.2585,222.511 99.3285,222.968 99.3985,223.383 99.5105,223.826 99.6745,224.651 100.228,225.344 100.845,225.929 100.922,226.014 101.098,226.136 101.071,225.931 101.07,225.325 100.948,224.724 100.867,224.124 100.637,222.605 100.345,221.096 100.031,219.582 99.5275,217.015 98.8645,214.458 97.9875,211.97 96.8185,208.588 95.1735,205.354 93.1365,202.355 91.3985,199.812 89.4895,197.389 87.4305,195.07 83.5525,190.692 79.0525,186.829 74.3395,183.266 72.3275,181.74 70.2505,180.255 68.1635,178.791 64.7495,176.439 61.4785,173.897 58.4695,171.101 54.1605,167.115 50.4155,162.588 47.4505,157.642 44.7535,153.18 42.7095,148.383 41.3045,143.431 40.0575,139.018 39.2635,134.475 39.2035,129.904 39.1845,127.354 39.3855,124.78 40.0905,122.308 40.4755,121.027 40.9705,119.75 41.7865,118.649 42.9385,117.097 44.5055,115.788 46.3635,115.024 46.8055,114.82 47.2925,114.681 47.7905,114.721 48.9135,114.814 50.0155,115.084 51.0615,115.473 53.5375,116.429 55.7755,117.836 57.9285,119.309 60.4975,121.103 63.0095,122.966 65.5245,124.827 71.5335,129.289 77.5195,133.779 83.4405,138.342 84.9715,139.533 86.5235,140.701 87.9995,141.953 89.0785,142.826 89.9165,143.93 90.5645,145.112 91.5075,146.853 92.2465,148.697 93.0195,150.496 93.3265,151.164 93.6095,151.851 94.0305,152.466 94.1085,152.526 94.1715,152.737 94.3025,152.644 94.5885,152.302 94.7065,151.859 94.7895,151.438 94.9435,150.165 94.8995,148.879 94.8795,147.6 94.8275,145.523 94.7315,143.439 94.5305,141.378 94.4395,140.346 94.2885,139.301 94.0945,138.297 93.3425,134.268 92.1035,130.31 90.5685,126.497 90.1165,125.379 89.6355,124.277 89.1215,123.194 88.4445,121.767 87.7215,120.391 86.9135,119.022 86.3255,117.997 85.6445,116.999 84.9515,116.05 83.1395,113.579 81.2015,111.192 79.2835,108.793 76.4805,105.266 73.7185,101.691 71.4375,97.8415 69.9285,95.3109 68.7015,92.641 67.6725,89.9099 67.1295,88.4963 66.6605,87.0416 66.1255,85.6371 64.7615,82.0207 63.1895,78.4841 61.5375,74.9788 60.2045,72.1704 58.8235,69.3793 57.6515,66.5069 56.3485,63.2958 55.2015,59.9829 54.8765,56.5444 54.7305,54.7766 54.7315,52.9703 55.2005,51.2415 55.5765,49.7711 56.4435,48.4138 57.6705,47.4275 58.3935,46.8204 59.2645,46.3715 60.0885,45.9247 60.5345,45.669 61.0695,45.393 61.2125,44.8848 61.3085,44.277 60.8995,43.7455 60.6605,43.2102 60.2705,42.3286 60.1745,41.357 60.1865,40.4104 60.2005,39.3903 60.3205,38.2895 61.0165,37.4582 61.5225,36.8189 62.3925,36.4697 63.2355,36.5464 64.0155,36.6276 64.7705,36.9606 65.3325,37.4726 65.9415,38.0156 66.1375,38.8365 66.1115,39.5983 66.1035,40.1302 65.8955,40.6381 65.5875,41.0799 65.0565,41.8531 64.3755,42.5277 63.8825,43.3251 63.7585,43.5256 63.6065,43.7698 63.7555,43.9967 64.0625,44.5205 64.6195,44.8565 65.1245,45.1982 66.4355,46.0114 67.8785,46.622 69.3435,47.1494 70.7745,47.6407 72.2675,48.0574 73.8045,48.0717 74.6395,48.0747 75.5265,48.0206 76.2605,47.6102 76.9385,47.2513 77.3655,46.6166 77.6945,45.9769 77.7895,45.7955 77.9005,45.553 77.9815,45.3286 78.3075,44.4977 78.2505,43.5807 77.9855,42.7428 77.6735,41.7821 77.3215,40.8331 77.0065,39.8732 77.6675,40.4053 78.3725,40.8942 78.9725,41.4888 79.8875,42.3956 80.7185,43.3789 81.4565,44.4177 82.7385,46.1933 83.3675,48.2835 83.9145,50.3402 84.9785,54.4125 85.7725,58.5406 86.7315,62.6347 87.1045,64.2124 87.4735,65.8161 87.9545,67.3519 88.1565,68.0083 88.3955,68.6843 88.6615,69.3505 89.4375,71.1727 90.3135,72.9571 91.2405,74.7167 92.8925,77.8714 94.8775,80.864 97.0365,83.7354 99.3315,86.8135 101.86,89.7384 104.229,92.7724 106.36,95.4844 108.346,98.3035 110.022,101.285 111.598,104.124 113.09,107.018 114.202,110.049 115.26,112.897 115.879,115.875 116.185,118.873 116.497,121.595 116.473,124.339 116.773,127.061 116.828,127.284 116.778,127.547 116.927,127.738 117.136,127.809 117.256,127.57 117.352,127.44 117.751,126.81 117.957,126.093 118.183,125.398 118.627,123.942 118.916,122.422 119.059,120.933 119.134,120.204 119.159,119.463 119.188,118.717 119.244,116.838 119.222,114.916 119.062,113.036 118.997,112.077 118.846,111.11 118.595,110.167 117.961,107.781 117.145,105.442 116.307,103.113 114.347,97.7437 112.187,92.44 109.963,87.162 108.615,83.9409 107.188,80.7492 105.879,77.5142 105.334,76.1158 104.768,74.7163 104.428,73.2587 104.144,72.1184 104.103,70.9425 104.122,69.7765 104.148,68.5567 104.159,67.2734 104.773,66.1635 105.246,65.3775 105.939,64.7235 106.684,64.1593 107.367,63.6205 108.205,63.2288 109.105,63.1672 110.088,63.1015 111.054,63.3843 111.958,63.7183 114.322,64.6456 116.533,65.8904 118.599,67.3038 121.633,69.4056 124.407,71.8632 126.668,74.6985 127.771,76.1704 128.703,77.7468 129.698,79.2831 130.27,80.1501 130.819,81.0349 131.481,81.8453 131.656,82.0112 131.781,82.2806 132.046,82.3285 132.177,82.2564 132.114,82.064 132.122,81.945 132.097,81.1085 132.09,80.2706 132.105,79.4337 132.142,78.7594 132.134,78.0482 132.456,77.4276 132.697,76.9643 133.233,76.7306 133.754,76.6616 134.811,76.5398 135.876,76.6836 136.926,76.7973 141.27,77.3288 145.588,78.2175 149.676,79.7129 150.964,80.1931 152.238,80.7183 153.444,81.359 154.308,81.8397 155.019,82.5221 155.61,83.2761 156.562,84.4528 157.444,85.6886 158.142,87.014 158.329,87.4218 158.589,87.8244 158.553,88.2889 158.321,89.1315 157.788,89.866 157.305,90.5993 157.038,91.0309 156.699,91.4475 156.585,91.9437 156.521,92.1858 156.718,92.403 156.966,92.4508 157.569,92.5937 158.201,92.5438 158.817,92.5391 162.319,92.3682 165.828,92.3632 169.334,92.37 169.538,92.3338 169.707,92.4325 169.88,92.5186 171.278,93.1917 172.702,93.8195 174.078,94.5338 175.392,95.1988 176.509,96.1442 177.549,97.1367 178.543,98.0539 179.482,99.0353 180.207,100.157 181.208,101.759 182.088,103.428 182.856,105.139 183.863,107.363 184.547,109.71 184.926,112.098 185.285,114.271 185.369,116.471 185.498,118.664 185.537,119.176 185.565,119.659 185.622,120.151 185.679,120.494 185.693,120.856 185.837,121.178 185.912,121.316 186.005,121.111 186.028,121.048 186.446,119.496 186.871,117.945 187.328,116.402 188.318,113.026 189.304,109.648 190.383,106.296 190.615,105.463 190.998,104.649 191.554,103.952 192.333,103.022 193.229,102.185 194.143,101.372 195.085,100.554 196.061,99.7295 197.236,99.2129 197.885,98.917 198.627,98.7612 199.345,98.8976 199.928,99.0106 200.468,99.232 201.023,99.4469 203.19,100.346 205.265,101.443 207.203,102.72 209.12,104.017 210.835,105.553 212.497,107.123 216.32,110.786 219.784,114.767 222.977,118.922 225.597,122.314 227.771,126.027 229.205,129.998 230.762,134.25 231.435,138.767 231.307,143.255 231.244,144.999 231.126,146.748 230.779,148.465 230.074,151.859 228.368,154.986 227.22,158.234 227.135,158.516 226.97,158.819 227.071,159.113 227.118,159.284 227.327,159.302 227.474,159.237 227.997,159.015 228.391,158.604 228.802,158.24 230.114,156.986 231.272,155.6 232.444,154.233 234.761,151.478 237.343,148.889 240.355,146.788 242.918,144.99 245.789,143.595 248.798,142.575 251.694,141.56 254.806,141.265 257.877,141.181 262.328,141.075 266.79,141.243 271.206,141.781 276.518,142.418 281.742,143.658 286.748,145.435 289.205,146.319 291.64,147.276 293.95,148.461 296.111,149.556 298.089,150.949 299.867,152.533 301.271,153.803 302.635,155.131 303.738,156.644 304.715,157.98 305.389,159.487 305.905,161.025 306.25,162.042 306.264,163.119 306.262,164.176 306.232,165.728 306.227,167.282 306.146,168.833 306.104,169.586 306.025,170.347 305.734,171.057 305.057,172.724 304.195,174.322 303.211,175.848 300.931,179.349 298.122,182.53 295.051,185.447 292.071,188.257 288.825,190.841 285.247,192.964 282.687,194.497 279.887,195.645 277.023,196.581 274.801,197.296 272.537,197.932 270.21,198.258 268.891,198.468 267.531,198.37 266.244,198.041 263.704,197.376 261.408,196.076 259.336,194.575 257.473,193.255 255.853,191.671 254.205,190.129 254.312,188.732 254.419,187.335 254.524,185.938 254.67,184.063 254.768,182.133 255.57,180.381 256.692,177.839 258.388,175.55 260.322,173.492 262.255,171.467 264.435,169.611 266.962,168.255 267.968,167.672 269.14,167.422 270.29,167.221 271.262,167.048 272.263,166.995 273.212,166.721 273.378,166.643 273.685,166.607 273.665,166.38 273.462,166.114 273.091,166.022 272.777,165.911 271.326,165.468 269.839,165.125 268.335,164.876 267.567,164.758 266.713,164.654 265.905,164.587 264.482,164.465 263.017,164.437 261.574,164.543 259.829,164.638 258.153,165.186 256.593,165.899 254.044,167.077 251.685,168.579 249.384,170.131 246.908,171.795 244.521,173.569 242.127,175.333 239.628,177.159 237.116,178.995 234.348,180.456 232.756,181.308 231.052,181.966 229.299,182.463 227.028,183.099 224.713,183.627 222.354,183.879 220.841,184.016 219.275,184.101 217.798,183.692 216.983,183.48 216.163,182.974 215.931,182.173 215.807,181.565 215.972,180.946 216.057,180.341 216.171,179.345 216.202,178.341 216.251,177.341 216.339,174.903 216.37,172.434 216.353,169.983 216.332,168.446 216.323,166.915 216.186,165.387 216.152,165.014 216.104,164.604 216.061,164.255 215.924,163.215 215.74,162.182 215.538,161.151 215.248,159.651 214.905,158.125 214.521,156.632 213.904,154.253 213.151,151.862 212.241,149.549 212.097,149.172 211.927,148.767 211.783,148.414 211.04,146.666 210.2,144.926 209.182,143.291 208.472,142.114 207.604,141.032 206.717,139.97 205.898,139.005 205.075,138.04 204.178,137.138 204.122,137.115 203.946,136.889 203.932,137.002 204.098,137.566 204.347,138.128 204.566,138.662 205.632,141.093 206.614,143.558 207.418,146.077 209.028,151.057 209.927,156.235 210.11,161.434 210.253,165.706 210.112,170.004 209.335,174.222 208.619,178.172 207.284,182.01 205.513,185.653 204.455,187.795 203.321,189.925 201.817,191.828 201.03,192.798 200.152,193.763 198.977,194.33 197.339,195.082 195.375,195.078 193.678,194.499 192.277,194.028 191.057,193.144 190.164,192.035 189.211,190.851 188.471,189.527 187.857,188.164 187.332,186.962 186.885,185.722 186.614,184.446 186.335,182.97 186.299,181.467 186.238,179.973 186.061,174.353 185.999,168.73 185.817,163.11 185.639,157.899 185.451,152.695 184.593,147.535 184.263,145.508 183.8,143.483 183.255,141.51 182.449,138.585 181.437,135.715 180.372,132.865 178.678,128.348 176.858,123.886 175.063,119.403 173.423,115.345 171.822,111.277 170.093,107.253 169.679,106.294 169.272,105.368 168.771,104.449 168.623,104.184 168.455,103.891 168.276,103.605 167.751,102.818 167.222,102.029 166.614,101.295 165.881,100.392 164.865,99.7384 163.802,99.2179 163.393,99.015 162.966,98.8251 162.529,98.634 159.666,97.4109 156.733,96.3417 153.824,95.2205 151.256,94.22 148.674,93.242 146.184,92.077 145.319,91.6919 144.508,91.2133 143.711,90.7183 142.475,90.0015 141.184,89.3388 139.79,88.9322 139.453,88.8608 139.11,88.728 138.76,88.7705 138.715,88.8456 138.824,88.9261 138.864,88.9861 139.443,89.5245 140.093,89.9927 140.716,90.4853 143.603,92.6964 146.566,94.851 149.113,97.4148 150.178,98.4526 151.041,99.6528 152.104,100.691 152.762,101.384 153.691,101.762 154.603,102.07 156.794,102.781 158.921,103.682 160.877,104.852 163.782,106.568 166.239,108.91 168.121,111.592 170.297,114.659 171.771,118.104 172.967,121.595 174.359,125.672 175.472,129.829 176.414,134.015 177.333,138.157 178.115,142.331 178.535,146.545 178.718,148.313 178.816,150.094 178.668,151.868 178.423,154.945 177.645,158.01 176.161,160.776 175.1,162.789 173.527,164.55 171.644,165.936 170.553,166.725 169.364,167.464 168.007,167.772 166.979,168.033 165.903,167.723 164.997,167.259 163.436,166.446 162.065,165.353 160.778,164.203 158.53,162.165 156.428,159.987 154.46,157.711 153.496,156.613 152.604,155.46 151.807,154.25 150.131,151.713 148.572,149.11 147.048,146.491 145.281,143.426 143.543,140.345 141.946,137.199 141.435,136.155 140.89,135.121 140.488,134.035 140.085,133.004 140.006,131.9 139.952,130.813 139.89,129.08 139.9,127.342 140.051,125.614 140.185,124.22 140.379,122.808 140.935,121.499 141.353,120.467 142.218,119.649 143.211,119.08 144.752,118.2 146.512,117.732 148.26,117.36 149.453,117.128 150.652,116.892 151.87,116.82 153.189,116.773 154.494,117.019 155.794,117.192 156.477,117.276 157.204,117.392 157.911,117.373 158.047,117.347 158.321,117.36 158.288,117.167 158.075,116.848 157.71,116.648 157.382,116.443 155.167,115.136 152.802,114.071 150.566,112.796 148.265,111.509 146.054,110.026 144.281,108.129 142.297,106.016 140.699,103.61 139.323,101.118 136.979,96.8239 135.14,92.3131 133.29,87.8202 132.911,86.9146 132.553,86.0003 132.161,85.1 132.142,85.5612 132.154,86.0676 132.153,86.5481 132.112,87.9239 132.249,89.3076 132.628,90.6396 133.253,92.6964 133.916,94.7439 134.451,96.8234 134.865,98.4828 135.278,100.15 135.464,101.848 135.66,103.916 135.656,105.996 135.644,108.071 135.605,113.441 135.364,118.809 135.321,124.179 135.311,127.789 135.335,131.392 135.633,134.981 135.743,136.441 135.963,137.909 136.298,139.349 136.516,140.306 136.771,141.264 137.047,142.22 137.554,143.952 138.157,145.703 138.833,147.401 140.094,150.59 141.638,153.679 143.438,156.633 145.613,160.229 148.258,163.548 150.888,166.849 154.568,171.438 158.092,176.143 161.279,181.046 164.015,185.279 166.532,189.656 168.452,194.272 169.399,196.524 170.157,198.844 170.716,201.206 171.641,205.13 172.15,209.137 172.295,213.151 172.363,215.543 172.323,217.948 171.96,220.32 171.402,223.734 170.066,226.985 168.554,230.118 166.392,234.559 163.872,238.837 161.317,243.089 159.238,246.518 157.13,249.933 155.147,253.413 154.224,254.989 153.375,256.604 152.621,258.257 150.87,262.121 149.3,266.058 147.922,270.051 147.448,271.487 146.935,272.923 146.697,274.413 146.573,275.238 146.489,276.071 146.422,276.918 146.344,277.914 146.295,278.982 146.257,279.979 146.214,281.531 146.189,283.085 146.277,284.636 146.328,285.719 146.505,286.808 146.717,287.885 146.872,288.579 146.999,289.286 147.268,289.951 147.321,290.104 147.436,290.057 147.431,289.906 148.124,285.11 148.483,280.264 149.534,275.517 150.15,272.702 151.044,269.937 152.253,267.294 154.339,262.74 156.945,258.385 160.114,254.411 163.915,249.632 168.522,245.459 173.458,241.714 178.844,237.673 184.027,233.38 188.785,228.696 191.068,226.458 193.267,224.105 195.34,221.699 199.237,217.168 202.753,212.367 205.868,207.335 208.354,203.328 210.639,199.191 212.502,194.916 213.083,193.53 213.677,192.132 213.948,190.658 214.037,190.212 214.094,189.803 214.155,189.361 214.277,188.388 214.332,187.36 214.877,186.495 215.135,186.014 215.755,185.666 216.327,185.859 217.687,186.469 218.985,187.192 220.293,187.894 223.804,189.863 227.408,191.685 231.075,193.387 234.074,194.774 237.086,196.097 240.175,197.3 241.685,197.88 243.217,198.459 244.757,198.944 245.838,199.282 246.946,199.589 248.053,199.895 251.16,200.752 254.268,201.605 257.495,201.966 258.882,202.118 260.238,202.207 261.626,202.271 264.938,202.413 268.258,202.453 271.571,202.667 272.215,202.719 272.865,202.742 273.5,202.849 273.995,202.983 274.233,203.473 274.378,203.895 274.721,205.005 274.868,206.158 275.035,207.299 275.29,209.05 275.471,210.81 275.503,212.577 275.534,214.476 275.465,216.376 275.386,218.273 275.251,221.232 274.979,224.194 274.332,227.096 273.365,231.506 271.566,235.707 269.649,239.82 268.245,242.809 266.772,245.769 265.349,248.75 262.603,254.521 259.911,260.317 257.543,266.219 255.805,270.576 254.209,275 253.187,279.557 252.941,280.691 252.703,281.817 252.555,282.963 252.525,283.196 252.499,283.456 252.478,283.691 252.418,284.347 252.379,285.037 252.353,285.7 252.202,289.335 252.22,293.004 252.291,296.622 252.332,297.848 252.429,299.073 252.616,300.287 253.13,303.282 253.736,306.264 254.415,309.23 255.11,312.266 255.902,315.293 256.798,318.291 257.095,319.271 257.401,320.265 257.724,321.245 258.216,322.763 258.75,324.291 259.295,325.778 260.987,330.368 262.932,334.874 265.055,339.305 266.25,341.769 267.442,344.223 268.75,346.636 269.295,347.613 269.818,348.609 270.509,349.504 270.73,349.746 270.935,350.087 271.305,350.126 271.536,350.084 271.495,349.799 271.488,349.634 271.351,348.663 270.997,347.733 270.667,346.808 269.118,342.694 267.801,338.505 266.672,334.274 265.34,329.272 264.227,324.218 263.401,319.121 262.83,315.52 262.36,311.898 262.219,308.258 262.088,304.111 262.265,299.958 262.644,295.826 262.908,293.109 263.231,290.39 263.841,287.72 264.721,284.09 265.902,280.522 267.399,277.072 269.004,273.411 270.939,269.847 273.481,266.672 274.994,264.81 276.722,263.042 278.875,261.818 280.178,261.115 281.591,260.549 283.086,260.337 284.924,260.065 286.785,260.482 288.498,261.09 290.382,261.77 292.203,262.601 293.945,263.555 297.103,265.273 299.839,267.573 302.406,269.983 304.425,271.896 306.389,273.86 308.288,275.878 311.022,278.796 313.565,281.895 315.583,285.293 317.935,289.229 319.536,293.512 320.809,297.848 321.457,300.007 321.998,302.196 322.735,304.331 322.942,304.855 323.103,305.412 323.452,305.872 323.644,306.134 324.069,305.989 324.179,305.731 324.407,305.068 324.251,304.361 324.182,303.685 323.713,300.6 322.897,297.587 321.973,294.6 320.414,289.636 318.509,284.781 316.409,280.001 315.301,277.458 314.113,274.942 312.901,272.436 311.086,268.686 309.351,264.9 307.749,261.066 306.004,256.921 304.435,252.714 302.74,248.551 301.282,244.943 299.647,241.398 297.86,237.921 293.727,229.943 289.28,222.108 284.587,214.405 283.005,211.795 281.373,209.211 279.733,206.625 278.607,204.821 277.465,203.022 276.499,201.136 277.863,200.388 279.26,199.694 280.651,198.991 283.557,197.532 286.444,195.998 289.2,194.321 291.053,193.195 292.887,191.981 294.606,190.727 297.223,188.821 299.711,186.761 302.09,184.613 305.74,181.305 309.255,177.883 312.553,174.267 314.25,172.382 315.948,170.482 317.344,168.386 318.76,166.208 320.044,163.953 320.998,161.554 321.442,160.39 321.875,159.191 321.911,157.943 321.954,157.458 321.803,156.963 321.468,156.587 320.759,155.842 319.864,155.283 319.001,154.708 316.132,152.853 313.234,151.027 310.175,149.456 306.79,147.753 303.322,146.177 299.748,144.833 293.092,142.317 286.109,140.659 279.102,139.256 274.956,138.437 270.786,137.624 266.711,136.507 263.53,135.649 260.422,134.567 257.394,133.317 253.6,131.747 249.888,130.009 246.234,128.173 241.482,125.76 236.802,123.216 232.286,120.432 230.617,119.391 228.945,118.345 227.387,117.161 225.439,115.623 223.598,113.97 221.777,112.302 219.566,110.236 217.328,108.182 215.046,106.195 211.696,103.272 208.268,100.426 204.736,97.6958 202.155,95.7189 199.553,93.7841 196.78,92.0491 195.058,90.9733 193.257,89.9397 191.443,88.9735 188.086,87.1879 184.626,85.5508 181.104,84.1104 178.066,82.8852 174.966,81.7583 171.738,81.05 168.333,80.3206 164.906,79.7288 161.471,79.1606 156.429,78.3116 151.359,77.6034 146.345,76.6179 143.229,76.0144 140.14,75.2642 137.148,74.2425 135.057,73.5184 132.988,72.7311 130.975,71.8328 127.143,70.1371 123.702,67.7894 120.333,65.407 115.513,61.9455 110.65,58.5379 105.727,55.2003 102.533,53.0446 99.3265,50.8896 96.0685,48.8458 94.6105,47.9147 93.1015,47.0581 91.6055,46.1828 86.9475,43.462 82.4965,40.4414 78.2265,37.2144 75.6865,35.2844 73.2005,33.2785 70.4665,31.5852 67.8775,29.9561 65.0255,28.6446 61.9725,27.9849 60.9185,27.7487 59.8195,27.5269 58.7135,27.4984 Z"
     style="fill:none;stroke:#000000;stroke-width:0.75"
     id="path4" />
  <path
     d="M 103.60125,160.11733 H 103.6012 C 103.48236,160.05493 103.39846,160.17073 103.40746,160.27292 103.73762,161.12264 104.17883,161.93316 104.59637,162.74845 105.65808,164.77689 106.72018,166.79062 107.89903,168.76044 109.51812,171.3134 111.26066,173.78687 112.99744,176.26806 116.20919,180.75539 119.35222,185.31038 121.84504,190.19134 123.68286,193.75124 125.13366,197.47811 126.28628,201.27923 127.43495,205.12215 128.4431,209.01215 129.02309,212.96893 129.62424,217.04853 129.70164,221.17468 129.69014,225.28705 129.66504,227.82225 129.71144,230.36989 129.3324,232.8868 128.7102,236.73719 127.80087,240.54699 126.63922,244.28656 126.04947,246.23319 125.35314,248.14836 124.69704,250.07428 124.29394,251.31639 123.85917,252.56039 123.67167,253.85072 123.65117,253.99652 123.63507,254.19824 123.62907,254.30882 123.61697,254.66836 123.62007,255.03016 123.66397,255.38755 123.66697,255.49476 123.77463,255.60548 123.87973,255.50476 124.35837,255.17703 124.6267,254.65947 124.92792,254.19558 126.29507,251.95068 127.51972,249.6302 128.62693,247.26372 130.99541,242.02851 132.75376,236.57677 134.0595,231.03323 134.86237,227.60515 135.49326,224.10819 135.94904,220.62194 136.5562,215.99399 136.87086,211.35864 136.92906,206.70268 136.96416,203.60212 136.94136,200.48216 136.71543,197.39885 136.56646,195.48682 136.32485,193.54539 135.76325,191.68461 135.71445,191.58921 135.70795,191.44548 135.62417,191.37598 135.52627,191.43938 135.53177,191.60398 135.50678,191.71149 135.29195,193.4407 135.13701,195.18011 134.7708,196.88953 134.53569,197.88982 134.33326,198.93019 133.76047,199.81889 133.63465,200.04884 133.38777,200.18395 133.1187,200.21425 132.783,200.01969 132.49308,199.76281 132.26085,199.46443 131.2196,198.13282 130.41125,196.6592 129.60085,195.19862 128.26628,192.71907 126.89078,190.2526 125.32722,187.88982 123.60311,185.25211 121.66443,182.74795 119.60008,180.34279 117.45788,177.85884 115.24842,175.42668 113.1142,172.93661 111.31458,170.82875 109.53367,168.69501 108.02852,166.38972 106.85384,164.60849 105.87914,162.7121 104.58121,161.00266 104.30383,160.67067 104.03371,160.28293 103.60125,160.11733 Z"
     style="fill:none;stroke:#000000;stroke-width:0.75"
     id="path6" />
</svg>
